# xmcd
#
# Track frame offsets: 
#        150
#        17130
#        45513
#        70163
#        108177
#        132931
#        160896
#        181526
#        204093
#        228165
#        257837
#        284211
#        308951
#        332970
#        354360
#        377157
#        396394
#
# Disc length: 5602 seconds
#
# Revision: 0
# Processed by: cddbd v1.5.2PL0 Copyright (c) Steve Scherf et al.
# Submitted via: ExactAudioCopy v1.0b3
#
DISCID=f315e011
DTITLE=Various Artist - Hat Giua Que Huong
DYEAR=1969
DGENRE=
TTITLE0=Duy Khanh, Ha Thanh - Loi gioi thieu, Di tu ruong dong bao la
TTITLE1=Thai Thanh - Tinh ca
TTITLE2=Thanh Thuy - Nhat nang
TTITLE3=Hoang oanh - Ong lai do
TTITLE4=My The - Tro ve thon cu
TTITLE5=Ha Thanh - Con quoc Viet Nam
TTITLE6=Si Phu - Tinh que huong
TTITLE7=Thai Thanh - Tinh hoai huong
TTITLE8=Duy Khanh, Thanh Tuyen - Tinh ngheo
TTITLE9=Thanh Thuy - Loi ve dat me
TTITLE10=Hoang Oanh - Tinh sau bien gioi
TTITLE11=Thanh Lan - Do ai
TTITLE12=Thai Thanh - Bai huong ca vo tan
TTITLE13=Ha Thanh - Nguoi ve
TTITLE14=Bang Chau - Loi cua Me
TTITLE15=Thanh Tuyen - Loi nguoi
TTITLE16=Duy Khanh - Ngay tro ve
EXTD=
EXTT0=
EXTT1=
EXTT2=
EXTT3=
EXTT4=
EXTT5=
EXTT6=
EXTT7=
EXTT8=
EXTT9=
EXTT10=
EXTT11=
EXTT12=
EXTT13=
EXTT14=
EXTT15=
EXTT16=
PLAYORDER=
